<svg xmlns="http://www.w3.org/2000/svg" viewBox="0 0 1200 720"><defs><linearGradient id="g" x1="0" x2="1"><stop stop-color="#78b6c9"/><stop offset="1" stop-color="#ef9f77"/></linearGradient></defs><rect width="1200" height="720" rx="28" fill="#101613"/><g fill="none" stroke="#31423a" stroke-width="2"><path d="M110 510C250 460 300 250 430 320S610 580 750 430 930 160 1090 250"/><path d="M110 580C260 550 340 430 470 470S690 590 820 480 970 340 1090 385"/></g><g fill="#101613" stroke="url(#g)" stroke-width="4"><circle cx="130" cy="510" r="55"/><circle cx="350" cy="350" r="65"/><circle cx="590" cy="450" r="75"/><circle cx="825" cy="345" r="65"/><circle cx="1060" cy="260" r="55"/></g><g font-family="Arial" text-anchor="middle" fill="#f5f2e9" font-size="21" font-weight="700"><text x="130" y="518">Problem</text><text x="350" y="358">Evidence</text><text x="590" y="458">Analysis</text><text x="825" y="353">Options</text><text x="1060" y="268">Decision</text></g><text x="80" y="115" font-family="Arial" font-size="42" fill="#f5f2e9" font-weight="700">Policy is a system of choices.</text><text x="80" y="165" font-family="Arial" font-size="22" fill="#9eb0a5">My work makes the assumptions, tradeoffs, and consequences visible.</text></svg>
