<svg xmlns="http://www.w3.org/2000/svg" viewBox="0 0 1200 720">
<defs><linearGradient id="g" x1="0" x2="1"><stop stop-color="#ef9f77"/><stop offset="1" stop-color="#78b6c9"/></linearGradient><filter id="glow"><feGaussianBlur stdDeviation="8" result="b"/><feMerge><feMergeNode in="b"/><feMergeNode in="SourceGraphic"/></feMerge></filter></defs>
<rect width="1200" height="720" rx="28" fill="#101613"/>
<g fill="none" stroke="#34443c" stroke-width="2"><path d="M245 360H420M780 360H960M600 190V285M600 435V545"/><path d="M310 215L490 310M890 215L710 310M310 505L490 410M890 505L710 410"/></g>
<g font-family="Arial" text-anchor="middle"><circle cx="600" cy="360" r="120" fill="#18221d" stroke="url(#g)" stroke-width="5" filter="url(#glow)"/><text x="600" y="347" fill="#fff" font-size="34" font-weight="700">KRPhotoApp</text><text x="600" y="382" fill="#9eb0a5" font-size="20">Project-centered workflow</text>
<g fill="#17201c" stroke="#53685d" stroke-width="2"><rect x="100" y="300" width="210" height="120" rx="20"/><rect x="890" y="300" width="210" height="120" rx="20"/><rect x="490" y="70" width="220" height="120" rx="20"/><rect x="490" y="530" width="220" height="120" rx="20"/><rect x="155" y="145" width="210" height="105" rx="20"/><rect x="835" y="145" width="210" height="105" rx="20"/><rect x="155" y="470" width="210" height="105" rx="20"/><rect x="835" y="470" width="210" height="105" rx="20"/></g>
<g fill="#f5f2e9" font-size="23" font-weight="700"><text x="205" y="350">React portal</text><text x="995" y="350">ASP.NET API</text><text x="600" y="120">AWS Cognito</text><text x="600" y="580">PostgreSQL</text><text x="260" y="190">S3 assets</text><text x="940" y="190">CloudFront</text><text x="260" y="515">Lightroom OAuth</text><text x="940" y="515">Role workflows</text></g>
<g fill="#9eb0a5" font-size="17"><text x="205" y="382">public · client · admin</text><text x="995" y="382">auth · data · services</text><text x="600" y="153">identity and roles</text><text x="600" y="613">workflow source of truth</text></g></g></svg>
